<svg width="273" height="345" viewBox="0 0 273 345" fill="none" xmlns="http://www.w3.org/2000/svg">
<rect opacity="0.3" x="49.3203" y="314.948" width="28.896" height="27.8955" rx="13.9478" fill="#26A17B"/>
<rect opacity="0.3" x="234.637" y="314.948" width="28.896" height="27.8955" rx="13.9478" fill="#26A17B"/>
<rect opacity="0.3" x="146.609" y="314.948" width="28.896" height="27.8955" rx="13.9478" fill="#1984FF"/>
<rect y="313" width="273" height="31.7915" rx="15.8957" fill="#161D26"/>
<path d="M57.9709 332.896H59.0629V329.26C59.0629 327.844 59.8309 327.148 60.9469 327.148C62.0509 327.148 62.7829 327.832 62.7829 329.176V332.896H63.8629V329.02C63.8629 327.136 62.6989 326.2 61.2349 326.2C60.3109 326.2 59.4949 326.572 59.0629 327.268V324.016H57.9709V332.896ZM65.8867 331.096C65.8867 332.416 66.5467 332.896 67.7107 332.896H68.6947V331.972H67.8907C67.2187 331.972 66.9787 331.744 66.9787 331.096V327.22H68.6947V326.32H66.9787V324.664H65.8867V326.32H65.0347V327.22H65.8867V331.096ZM70.2578 331.096C70.2578 332.416 70.9178 332.896 72.0818 332.896H73.0658V331.972H72.2617C71.5898 331.972 71.3498 331.744 71.3498 331.096V327.22H73.0658V326.32H71.3498V324.664H70.2578V326.32H69.4058V327.22H70.2578V331.096ZM75.4808 327.532V326.32H74.3888V336.016H75.4808V331.684C75.8888 332.356 76.7408 333.004 77.9408 333.004C79.7048 333.004 81.0608 331.624 81.0608 329.584C81.0608 327.532 79.7048 326.212 77.9408 326.212C76.7408 326.212 75.8768 326.836 75.4808 327.532ZM79.9448 329.584C79.9448 331.132 78.9248 332.044 77.7128 332.044C76.5248 332.044 75.4808 331.144 75.4808 329.596C75.4808 328.072 76.5248 327.16 77.7128 327.16C78.9248 327.16 79.9448 328.036 79.9448 329.584ZM87.2262 331.108C87.1782 328.756 83.3622 329.608 83.3622 328.048C83.3622 327.52 83.8422 327.136 84.6462 327.136C85.5222 327.136 86.0262 327.616 86.0742 328.276H87.1662C87.0942 326.992 86.1342 326.212 84.6822 326.212C83.2182 326.212 82.2702 327.04 82.2702 328.048C82.2702 330.496 86.1582 329.644 86.1582 331.108C86.1582 331.648 85.6782 332.08 84.8142 332.08C83.8902 332.08 83.3262 331.6 83.2662 330.964H82.1382C82.2102 332.164 83.2902 333.004 84.8262 333.004C86.2782 333.004 87.2262 332.188 87.2262 331.108ZM89.8358 332.224C89.8358 331.804 89.5118 331.48 89.1158 331.48C88.6958 331.48 88.3718 331.804 88.3718 332.224C88.3718 332.644 88.6958 332.968 89.1158 332.968C89.5118 332.968 89.8358 332.644 89.8358 332.224ZM89.8358 327.088C89.8358 326.668 89.5118 326.344 89.1158 326.344C88.6958 326.344 88.3718 326.668 88.3718 327.088C88.3718 327.508 88.6958 327.832 89.1158 327.832C89.5118 327.832 89.8358 327.508 89.8358 327.088Z" fill="#24AE64"/>
<path d="M91.0344 334.936H92.1144L95.4024 321.592H94.3104L91.0344 334.936ZM96.7415 334.936H97.8215L101.109 321.592H100.017L96.7415 334.936ZM104.021 332.896H105.149L106.733 327.676L108.317 332.896H109.445L111.497 326.32H110.417L108.929 331.852L107.333 326.32H106.217L104.585 331.84L103.073 326.32H101.957L104.021 332.896ZM113.864 332.896H114.992L116.576 327.676L118.16 332.896H119.288L121.34 326.32H120.26L118.772 331.852L117.176 326.32H116.06L114.428 331.84L112.916 326.32H111.8L113.864 332.896ZM123.708 332.896H124.836L126.42 327.676L128.004 332.896H129.132L131.184 326.32H130.104L128.616 331.852L127.02 326.32H125.904L124.272 331.84L122.76 326.32H121.644L123.708 332.896ZM133.336 332.224C133.336 331.804 133.012 331.48 132.616 331.48C132.196 331.48 131.872 331.804 131.872 332.224C131.872 332.644 132.196 332.968 132.616 332.968C133.012 332.968 133.336 332.644 133.336 332.224ZM134.379 329.596C134.379 331.684 135.711 333.004 137.583 333.004C139.215 333.004 140.283 332.092 140.619 330.784H139.443C139.203 331.612 138.555 332.08 137.583 332.08C136.383 332.08 135.495 331.228 135.495 329.596C135.495 327.988 136.383 327.136 137.583 327.136C138.555 327.136 139.215 327.64 139.443 328.432H140.619C140.283 327.052 139.215 326.212 137.583 326.212C135.711 326.212 134.379 327.532 134.379 329.596ZM143.168 329.32C143.168 327.796 143.96 327.328 145.004 327.328H145.292V326.2C144.248 326.2 143.54 326.656 143.168 327.388V326.32H142.076V332.896H143.168V329.32ZM149.049 331.648L146.985 326.32H145.773L148.425 332.824L147.129 335.992H148.257L152.217 326.32H151.089L149.049 331.648ZM154.407 327.532V326.32H153.315V336.016H154.407V331.684C154.815 332.356 155.667 333.004 156.867 333.004C158.631 333.004 159.987 331.624 159.987 329.584C159.987 327.532 158.631 326.212 156.867 326.212C155.667 326.212 154.803 326.836 154.407 327.532ZM158.871 329.584C158.871 331.132 157.851 332.044 156.639 332.044C155.451 332.044 154.407 331.144 154.407 329.596C154.407 328.072 155.451 327.16 156.639 327.16C157.851 327.16 158.871 328.036 158.871 329.584ZM161.664 331.096C161.664 332.416 162.324 332.896 163.488 332.896H164.472V331.972H163.668C162.996 331.972 162.756 331.744 162.756 331.096V327.22H164.472V326.32H162.756V324.664H161.664V326.32H160.812V327.22H161.664V331.096ZM172.035 329.596C172.035 327.52 170.583 326.212 168.711 326.212C166.851 326.212 165.387 327.52 165.387 329.596C165.387 331.684 166.803 333.004 168.663 333.004C170.535 333.004 172.035 331.684 172.035 329.596ZM166.503 329.596C166.503 327.94 167.547 327.16 168.699 327.16C169.827 327.16 170.919 327.94 170.919 329.596C170.919 331.264 169.803 332.044 168.663 332.044C167.523 332.044 166.503 331.264 166.503 329.596ZM174.755 332.896H175.883L177.467 327.676L179.051 332.896H180.179L182.231 326.32H181.151L179.663 331.852L178.067 326.32H176.951L175.319 331.84L173.807 326.32H172.691L174.755 332.896ZM183.315 332.896H184.407V329.26C184.407 327.844 185.175 327.148 186.291 327.148C187.395 327.148 188.127 327.832 188.127 329.176V332.896H189.207V329.02C189.207 327.136 188.043 326.2 186.579 326.2C185.655 326.2 184.839 326.572 184.407 327.268V324.016H183.315V332.896ZM190.582 329.584C190.582 331.624 191.938 333.004 193.69 333.004C194.902 333.004 195.754 332.38 196.15 331.672V332.896H197.254V326.32H196.15V327.52C195.766 326.836 194.926 326.212 193.702 326.212C191.938 326.212 190.582 327.532 190.582 329.584ZM196.15 329.596C196.15 331.144 195.118 332.044 193.918 332.044C192.718 332.044 191.698 331.132 191.698 329.584C191.698 328.036 192.718 327.16 193.918 327.16C195.118 327.16 196.15 328.072 196.15 329.596ZM199.1 332.896H200.192V324.016H199.1V332.896ZM204.849 327.136C205.977 327.136 206.937 327.844 206.925 329.128H202.773C202.893 327.844 203.781 327.136 204.849 327.136ZM207.921 330.868H206.745C206.505 331.576 205.881 332.08 204.897 332.08C203.781 332.08 202.845 331.348 202.761 330.016H208.017C208.041 329.788 208.053 329.596 208.053 329.356C208.053 327.556 206.805 326.212 204.897 326.212C202.977 326.212 201.645 327.52 201.645 329.596C201.645 331.684 203.025 333.004 204.897 333.004C206.529 333.004 207.585 332.068 207.921 330.868ZM210.562 332.224C210.562 331.804 210.238 331.48 209.842 331.48C209.422 331.48 209.098 331.804 209.098 332.224C209.098 332.644 209.422 332.968 209.842 332.968C210.238 332.968 210.562 332.644 210.562 332.224ZM211.606 329.596C211.606 331.684 212.938 333.004 214.81 333.004C216.442 333.004 217.51 332.092 217.846 330.784H216.67C216.43 331.612 215.782 332.08 214.81 332.08C213.61 332.08 212.722 331.228 212.722 329.596C212.722 327.988 213.61 327.136 214.81 327.136C215.782 327.136 216.442 327.64 216.67 328.432H217.846C217.51 327.052 216.442 326.212 214.81 326.212C212.938 326.212 211.606 327.532 211.606 329.596ZM225.543 329.596C225.543 327.52 224.091 326.212 222.219 326.212C220.359 326.212 218.895 327.52 218.895 329.596C218.895 331.684 220.311 333.004 222.171 333.004C224.043 333.004 225.543 331.684 225.543 329.596ZM220.011 329.596C220.011 327.94 221.055 327.16 222.207 327.16C223.335 327.16 224.427 327.94 224.427 329.596C224.427 331.264 223.311 332.044 222.171 332.044C221.031 332.044 220.011 331.264 220.011 329.596ZM236.471 332.896H237.551V329.02C237.551 327.136 236.387 326.2 234.887 326.2C233.879 326.2 232.943 326.716 232.559 327.664C232.127 326.68 231.227 326.2 230.147 326.2C229.283 326.2 228.503 326.572 228.071 327.268V326.32H226.979V332.896H228.071V329.272C228.071 327.856 228.827 327.148 229.931 327.148C231.011 327.148 231.731 327.832 231.731 329.176V332.896H232.811V329.272C232.811 327.856 233.567 327.148 234.671 327.148C235.751 327.148 236.471 327.832 236.471 329.176V332.896Z" fill="white"/>
<a href="https://www.bybit.com&#13;&#10;">
<rect fill="black" fill-opacity="0" y="-9.53674e-07" width="184.575" height="18"/>
</a>
<rect x="4.34375" y="316.896" width="34.206" height="24" rx="12" fill="#24AE64"/>
<g clip-path="url(#clip0_704_15059)">
<path d="M25.5286 327.729H26.112C26.2667 327.729 26.4151 327.791 26.5245 327.9C26.6339 328.009 26.6953 328.158 26.6953 328.313V334.146C26.6953 334.301 26.6339 334.449 26.5245 334.558C26.4151 334.668 26.2667 334.729 26.112 334.729H16.7786C16.6239 334.729 16.4756 334.668 16.3662 334.558C16.2568 334.449 16.1953 334.301 16.1953 334.146V328.313C16.1953 328.158 16.2568 328.009 16.3662 327.9C16.4756 327.791 16.6239 327.729 16.7786 327.729H17.362V327.146C17.362 326.61 17.4676 326.079 17.6728 325.583C17.878 325.088 18.1788 324.638 18.558 324.258C18.9371 323.879 19.3873 323.579 19.8827 323.373C20.3781 323.168 20.9091 323.062 21.4453 323.062C21.9815 323.062 22.5125 323.168 23.0079 323.373C23.5033 323.579 23.9535 323.879 24.3327 324.258C24.7118 324.638 25.0126 325.088 25.2178 325.583C25.423 326.079 25.5286 326.61 25.5286 327.146V327.729ZM24.362 327.729V327.146C24.362 326.372 24.0547 325.63 23.5077 325.083C22.9607 324.536 22.2189 324.229 21.4453 324.229C20.6718 324.229 19.9299 324.536 19.3829 325.083C18.8359 325.63 18.5286 326.372 18.5286 327.146V327.729H24.362ZM20.862 330.063V332.396H22.0286V330.063H20.862Z" fill="white"/>
</g>
<path d="M17.488 225.152V242H26.968V238.832H21.592V225.152H17.488ZM42.0295 235.304C42.0295 231.056 39.0055 228.416 35.0695 228.416C31.1575 228.416 28.1095 231.056 28.1095 235.304C28.1095 239.552 31.0855 242.192 35.0215 242.192C38.9575 242.192 42.0295 239.552 42.0295 235.304ZM32.2855 235.304C32.2855 233.024 33.5815 231.968 35.0695 231.968C36.5095 231.968 37.8535 233.024 37.8535 235.304C37.8535 237.56 36.4855 238.64 35.0215 238.64C33.5335 238.64 32.2855 237.56 32.2855 235.304ZM43.3908 235.28C43.3908 239.504 46.0068 242.192 49.2948 242.192C51.2628 242.192 52.6788 241.256 53.4228 240.08V241.976C53.4228 244.232 52.1988 245.048 50.6388 245.048C49.2228 245.048 48.2148 244.4 47.9508 243.392H43.8948C44.2548 246.584 46.8468 248.6 50.8308 248.6C55.4628 248.6 57.5268 245.552 57.5268 241.976V228.608H53.4228V230.504C52.7028 229.304 51.2628 228.416 49.2948 228.416C46.0068 228.416 43.3908 231.056 43.3908 235.28ZM53.4228 235.304C53.4228 237.44 52.0548 238.616 50.4948 238.616C48.9588 238.616 47.5668 237.416 47.5668 235.28C47.5668 233.144 48.9588 231.992 50.4948 231.992C52.0548 231.992 53.4228 233.168 53.4228 235.304ZM60.4958 242H64.5998V228.608H60.4958V242ZM62.5598 227.216C63.9998 227.216 64.9838 226.232 64.9838 225.008C64.9838 223.76 63.9998 222.776 62.5598 222.776C61.0958 222.776 60.1118 223.76 60.1118 225.008C60.1118 226.232 61.0958 227.216 62.5598 227.216ZM76.8139 242H80.8939V234.176C80.8939 230.576 78.8299 228.464 75.7339 228.464C73.9339 228.464 72.4939 229.256 71.6779 230.384V228.608H67.5739V242H71.6779V234.728C71.6779 232.904 72.6859 231.896 74.2459 231.896C75.8059 231.896 76.8139 232.904 76.8139 234.728V242ZM92.2158 242H97.1838L99.9678 230.912L102.656 242H107.624L112.016 225.152H107.6L105.152 237.416L102.272 225.152H97.7598L94.7598 237.416L92.3358 225.152H87.9438L92.2158 242ZM114.074 242H118.178V228.608H114.074V242ZM116.138 227.216C117.578 227.216 118.562 226.232 118.562 225.008C118.562 223.76 117.578 222.776 116.138 222.776C114.674 222.776 113.69 223.76 113.69 225.008C113.69 226.232 114.674 227.216 116.138 227.216ZM121.8 237.344C121.8 240.824 123.744 242 126.528 242H128.616V238.52H127.152C126.24 238.52 125.904 238.184 125.904 237.392V232.016H128.592V228.608H125.904V225.344H121.8V228.608H120.168V232.016H121.8V237.344ZM130.902 242H135.006V234.728C135.006 232.904 136.014 231.896 137.574 231.896C139.134 231.896 140.142 232.904 140.142 234.728V242H144.222V234.176C144.222 230.576 142.182 228.464 139.134 228.464C137.286 228.464 135.822 229.256 135.006 230.408V224.24H130.902V242ZM155.664 233.528C155.664 230.528 157.392 228.632 160.128 228.632C162.816 228.632 164.568 230.528 164.568 233.528C164.568 236.48 162.816 238.424 160.128 238.424C157.392 238.424 155.664 236.48 155.664 233.528ZM168.744 233.528C168.744 228.464 164.928 224.912 160.128 224.912C155.352 224.912 151.464 228.464 151.464 233.528C151.464 238.592 155.352 242.168 160.128 242.168C160.776 242.168 161.4 242.096 162 241.976L164.16 244.88H169.128L165.432 240.44C167.448 238.904 168.744 236.48 168.744 233.528ZM179.978 230.624C179.978 231.944 179.258 232.736 177.722 232.736H175.178V228.56H177.722C179.258 228.56 179.978 229.376 179.978 230.624ZM171.074 225.152V242H175.178V235.64H176.162L179.666 242H184.298L180.41 235.328C183.002 234.56 184.154 232.568 184.154 230.456C184.154 227.528 182.09 225.152 177.962 225.152H171.074ZM191 235.304C191 239.552 193.784 242.192 197.72 242.192C201.08 242.192 203.456 240.248 204.152 237.152H199.784C199.424 238.136 198.776 238.688 197.648 238.688C196.184 238.688 195.176 237.536 195.176 235.304C195.176 233.072 196.184 231.92 197.648 231.92C198.776 231.92 199.448 232.52 199.784 233.456H204.152C203.456 230.264 201.08 228.416 197.72 228.416C193.784 228.416 191 231.08 191 235.304ZM219.451 235.304C219.451 231.056 216.427 228.416 212.491 228.416C208.579 228.416 205.531 231.056 205.531 235.304C205.531 239.552 208.507 242.192 212.443 242.192C216.379 242.192 219.451 239.552 219.451 235.304ZM209.707 235.304C209.707 233.024 211.003 231.968 212.491 231.968C213.931 231.968 215.275 233.024 215.275 235.304C215.275 237.56 213.907 238.64 212.443 238.64C210.955 238.64 209.707 237.56 209.707 235.304ZM220.813 235.28C220.813 239.504 223.429 242.192 226.717 242.192C228.685 242.192 230.101 241.304 230.845 240.08V242H234.949V224.24H230.845V230.456C230.029 229.232 228.493 228.416 226.717 228.416C223.429 228.416 220.813 231.056 220.813 235.28ZM230.845 235.304C230.845 237.44 229.477 238.616 227.917 238.616C226.381 238.616 224.989 237.416 224.989 235.28C224.989 233.144 226.381 231.992 227.917 231.992C229.477 231.992 230.845 233.168 230.845 235.304ZM243.822 231.704C245.19 231.704 246.342 232.544 246.342 234.008H241.206C241.446 232.52 242.478 231.704 243.822 231.704ZM250.23 237.56H245.862C245.526 238.28 244.878 238.856 243.726 238.856C242.406 238.856 241.326 238.04 241.182 236.288H250.47C250.518 235.88 250.542 235.472 250.542 235.088C250.542 231.008 247.782 228.416 243.87 228.416C239.886 228.416 237.102 231.056 237.102 235.304C237.102 239.552 239.934 242.192 243.87 242.192C247.206 242.192 249.582 240.176 250.23 237.56Z" fill="white"/>
<path d="M49.48 270.96C49.48 266.832 43.464 268.624 43.464 265.744C43.464 264.544 44.408 263.92 45.608 263.952C46.968 263.968 47.672 264.816 47.768 265.568H49.368C49.192 263.872 47.8 262.704 45.672 262.704C43.464 262.704 41.976 263.952 41.976 265.792C41.976 269.936 48.008 268.016 48.008 271.024C48.008 272.08 47.176 272.88 45.768 272.88C44.216 272.88 43.56 271.952 43.464 271.024H41.912C41.944 272.864 43.528 274.112 45.768 274.112C48.184 274.112 49.48 272.544 49.48 270.96ZM51.0786 269.6C51.0786 272.384 52.8546 274.144 55.3506 274.144C57.5266 274.144 58.9506 272.928 59.3986 271.184H57.8306C57.5106 272.288 56.6466 272.912 55.3506 272.912C53.7506 272.912 52.5666 271.776 52.5666 269.6C52.5666 267.456 53.7506 266.32 55.3506 266.32C56.6466 266.32 57.5266 266.992 57.8306 268.048H59.3986C58.9506 266.208 57.5266 265.088 55.3506 265.088C52.8546 265.088 51.0786 266.848 51.0786 269.6ZM60.7974 269.584C60.7974 272.304 62.6054 274.144 64.9414 274.144C66.5574 274.144 67.6934 273.312 68.2214 272.368V274H69.6934V265.232H68.2214V266.832C67.7094 265.92 66.5894 265.088 64.9574 265.088C62.6054 265.088 60.7974 266.848 60.7974 269.584ZM68.2214 269.6C68.2214 271.664 66.8454 272.864 65.2454 272.864C63.6454 272.864 62.2854 271.648 62.2854 269.584C62.2854 267.52 63.6454 266.352 65.2454 266.352C66.8454 266.352 68.2214 267.568 68.2214 269.6ZM78.5699 274H80.0099V268.832C80.0099 266.32 78.4579 265.072 76.4259 265.072C75.2419 265.072 74.1859 265.568 73.6099 266.48V265.232H72.1539V274H73.6099V269.152C73.6099 267.264 74.6339 266.336 76.1219 266.336C77.5939 266.336 78.5699 267.248 78.5699 269.04V274ZM87.5979 268.416C87.5979 265.68 89.3579 263.984 91.7099 263.984C94.0619 263.984 95.8219 265.68 95.8219 268.416C95.8219 271.136 94.0619 272.848 91.7099 272.848C89.3579 272.848 87.5979 271.136 87.5979 268.416ZM97.3099 268.416C97.3099 265.072 94.8619 262.72 91.7099 262.72C88.5739 262.72 86.1099 265.072 86.1099 268.416C86.1099 271.76 88.5739 274.112 91.7099 274.112C92.2859 274.112 92.8459 274.032 93.3739 273.888L95.5979 276.112H97.4859L94.6699 273.312C96.2699 272.352 97.3099 270.592 97.3099 268.416ZM105.231 266.128C105.231 267.376 104.511 268.272 102.863 268.272H100.719V264.048H102.863C104.527 264.048 105.231 264.864 105.231 266.128ZM99.2633 262.848V274H100.719V269.44H102.479L105.135 274H106.879L104.079 269.328C105.951 268.912 106.735 267.552 106.735 266.128C106.735 264.304 105.487 262.848 102.863 262.848H99.2633ZM112.719 269.6C112.719 272.384 114.495 274.144 116.991 274.144C119.167 274.144 120.591 272.928 121.039 271.184H119.471C119.151 272.288 118.287 272.912 116.991 272.912C115.391 272.912 114.207 271.776 114.207 269.6C114.207 267.456 115.391 266.32 116.991 266.32C118.287 266.32 119.167 266.992 119.471 268.048H121.039C120.591 266.208 119.167 265.088 116.991 265.088C114.495 265.088 112.719 266.848 112.719 269.6ZM131.302 269.6C131.302 266.832 129.366 265.088 126.87 265.088C124.39 265.088 122.438 266.832 122.438 269.6C122.438 272.384 124.326 274.144 126.806 274.144C129.302 274.144 131.302 272.384 131.302 269.6ZM123.926 269.6C123.926 267.392 125.318 266.352 126.854 266.352C128.358 266.352 129.814 267.392 129.814 269.6C129.814 271.824 128.326 272.864 126.806 272.864C125.286 272.864 123.926 271.824 123.926 269.6ZM132.672 269.584C132.672 272.304 134.48 274.144 136.832 274.144C138.432 274.144 139.568 273.328 140.096 272.352V274H141.568V262.16H140.096V266.8C139.488 265.792 138.224 265.088 136.848 265.088C134.48 265.088 132.672 266.848 132.672 269.584ZM140.096 269.6C140.096 271.664 138.72 272.864 137.12 272.864C135.52 272.864 134.16 271.648 134.16 269.584C134.16 267.52 135.52 266.352 137.12 266.352C138.72 266.352 140.096 267.568 140.096 269.6ZM147.757 266.32C149.261 266.32 150.541 267.264 150.525 268.976H144.989C145.149 267.264 146.333 266.32 147.757 266.32ZM151.853 271.296H150.285C149.965 272.24 149.133 272.912 147.821 272.912C146.333 272.912 145.085 271.936 144.973 270.16H151.981C152.013 269.856 152.029 269.6 152.029 269.28C152.029 266.88 150.365 265.088 147.821 265.088C145.261 265.088 143.485 266.832 143.485 269.6C143.485 272.384 145.325 274.144 147.821 274.144C149.997 274.144 151.405 272.896 151.853 271.296ZM159.928 274H161.432L163.544 267.04L165.656 274H167.16L169.896 265.232H168.456L166.472 272.608L164.344 265.232H162.856L160.68 272.592L158.664 265.232H157.176L159.928 274ZM171.341 274H172.797V265.232H171.341V274ZM172.093 263.808C172.621 263.808 173.053 263.376 173.053 262.816C173.053 262.256 172.621 261.824 172.093 261.824C171.533 261.824 171.101 262.256 171.101 262.816C171.101 263.376 171.533 263.808 172.093 263.808ZM175.599 271.6C175.599 273.36 176.479 274 178.031 274H179.343V272.768H178.271C177.375 272.768 177.055 272.464 177.055 271.6V266.432H179.343V265.232H177.055V263.024H175.599V265.232H174.463V266.432H175.599V271.6ZM181.107 274H182.563V269.152C182.563 267.264 183.587 266.336 185.075 266.336C186.547 266.336 187.523 267.248 187.523 269.04V274H188.963V268.832C188.963 266.32 187.411 265.072 185.459 265.072C184.227 265.072 183.139 265.568 182.563 266.496V262.16H181.107V274Z" fill="white"/>
<path d="M194.823 269.52C194.823 272.336 196.567 274.128 198.743 274.128C200.071 274.128 201.015 273.52 201.511 272.736V274H204.247V265.072H201.511V266.336C201.031 265.552 200.087 264.944 198.759 264.944C196.567 264.944 194.823 266.704 194.823 269.52ZM201.511 269.536C201.511 270.96 200.599 271.744 199.559 271.744C198.535 271.744 197.607 270.944 197.607 269.52C197.607 268.096 198.535 267.328 199.559 267.328C200.599 267.328 201.511 268.112 201.511 269.536ZM208.962 266.336V265.072H206.226V278.256H208.962V272.752C209.458 273.504 210.402 274.128 211.714 274.128C213.906 274.128 215.65 272.336 215.65 269.52C215.65 266.704 213.906 264.944 211.714 264.944C210.402 264.944 209.458 265.552 208.962 266.336ZM212.866 269.52C212.866 270.944 211.938 271.744 210.898 271.744C209.874 271.744 208.946 270.96 208.946 269.536C208.946 268.112 209.874 267.328 210.898 267.328C211.938 267.328 212.866 268.096 212.866 269.52ZM219.822 266.336V265.072H217.086V278.256H219.822V272.752C220.318 273.504 221.262 274.128 222.574 274.128C224.766 274.128 226.51 272.336 226.51 269.52C226.51 266.704 224.766 264.944 222.574 264.944C221.262 264.944 220.318 265.552 219.822 266.336ZM223.726 269.52C223.726 270.944 222.798 271.744 221.758 271.744C220.734 271.744 219.806 270.96 219.806 269.536C219.806 268.112 220.734 267.328 221.758 267.328C222.798 267.328 223.726 268.096 223.726 269.52Z" fill="#0CAF60"/>
<path d="M114.517 0.000976562H106.891V7.62722H114.517V0.000976562Z" fill="white"/>
<path d="M106.892 7.62793H99.2656V15.2542H106.892V7.62793Z" fill="white"/>
<path d="M159.747 7.62793H152.121V15.2542H159.747V7.62793Z" fill="white"/>
<path d="M167.091 7.62793H159.465V15.2542H167.091V7.62793Z" fill="white"/>
<path d="M114.517 7.62793H106.891V15.2542H114.517V7.62793Z" fill="white"/>
<path d="M129.771 7.62793H122.145V15.2542H129.771V7.62793Z" fill="white"/>
<path d="M137.4 7.62793H129.773V15.2542H137.4V7.62793Z" fill="white"/>
<path d="M114.517 15.2539H106.891V22.8801H114.517V15.2539Z" fill="white"/>
<path d="M122.142 15.2539H114.516V22.8801H122.142V15.2539Z" fill="white"/>
<path d="M129.771 15.2539H122.145V22.8801H129.771V15.2539Z" fill="white"/>
<path d="M152.65 15.2539H145.023V22.8801H152.65V15.2539Z" fill="white"/>
<path d="M106.892 22.8799H99.2656V30.5061H106.892V22.8799Z" fill="white"/>
<path d="M159.751 22.8799H152.125V30.5061H159.751V22.8799Z" fill="white"/>
<path d="M114.517 22.8799H106.891V30.5061H114.517V22.8799Z" fill="white"/>
<path d="M129.771 22.8799H122.145V30.5061H129.771V22.8799Z" fill="white"/>
<path d="M145.025 22.8799H137.398V30.5061H145.025V22.8799Z" fill="white"/>
<path d="M152.65 22.8799H145.023V30.5061H152.65V22.8799Z" fill="white"/>
<path d="M122.142 30.5068H114.516V38.1331H122.142V30.5068Z" fill="white"/>
<path d="M137.4 30.5068H129.773V38.1331H137.4V30.5068Z" fill="white"/>
<path d="M168.232 30.5068H160.605V38.1331H168.232V30.5068Z" fill="white"/>
<path d="M152.65 30.5068H145.023V38.1331H152.65V30.5068Z" fill="white"/>
<path d="M106.892 38.1348H99.2656V45.761H106.892V38.1348Z" fill="white"/>
<path d="M159.751 38.1348H152.125V45.761H159.751V38.1348Z" fill="white"/>
<path d="M122.142 38.1348H114.516V45.761H122.142V38.1348Z" fill="white"/>
<path d="M145.025 38.1348H137.398V45.761H145.025V38.1348Z" fill="white"/>
<path d="M106.892 45.7607H99.2656V53.387H106.892V45.7607Z" fill="white"/>
<path d="M159.751 45.7607H152.125V53.387H159.751V45.7607Z" fill="white"/>
<path d="M122.142 45.7607H114.516V53.387H122.142V45.7607Z" fill="white"/>
<path d="M137.4 45.7607H129.773V53.387H137.4V45.7607Z" fill="white"/>
<path d="M152.65 45.7607H145.023V53.387H152.65V45.7607Z" fill="white"/>
<path d="M137.4 53.3867H129.773V61.013H137.4V53.3867Z" fill="white"/>
<path d="M168.232 53.3867H160.605V61.013H168.232V53.3867Z" fill="white"/>
<path d="M152.65 53.3867H145.023V61.013H152.65V53.3867Z" fill="white"/>
<path d="M45.8801 61.0127H38.2539V68.6389H45.8801V61.0127Z" fill="white"/>
<path d="M53.5051 61.0127H45.8789V68.6389H53.5051V61.0127Z" fill="white"/>
<path d="M61.1301 61.0127H53.5039V68.6389H61.1301V61.0127Z" fill="white"/>
<path d="M68.7591 61.0127H61.1328V68.6389H68.7591V61.0127Z" fill="white"/>
<path d="M76.3841 61.0127H68.7578V68.6389H76.3841V61.0127Z" fill="white"/>
<path d="M91.638 61.0127H84.0117V68.6389H91.638V61.0127Z" fill="white"/>
<path d="M99.263 61.0127H91.6367V68.6389H99.263V61.0127Z" fill="white"/>
<path d="M106.892 61.0127H99.2656V68.6389H106.892V61.0127Z" fill="white"/>
<path d="M114.517 61.0127H106.891V68.6389H114.517V61.0127Z" fill="white"/>
<path d="M122.142 61.0127H114.516V68.6389H122.142V61.0127Z" fill="white"/>
<path d="M137.4 61.0127H129.773V68.6389H137.4V61.0127Z" fill="white"/>
<path d="M168.232 61.0127H160.605V68.6389H168.232V61.0127Z" fill="white"/>
<path d="M145.025 61.0127H137.398V68.6389H145.025V61.0127Z" fill="white"/>
<path d="M152.65 61.0127H145.023V68.6389H152.65V61.0127Z" fill="white"/>
<path d="M53.5051 68.6396H45.8789V76.2659H53.5051V68.6396Z" fill="white"/>
<path d="M84.013 68.6396H76.3867V76.2659H84.013V68.6396Z" fill="white"/>
<path d="M114.517 68.6396H106.891V76.2659H114.517V68.6396Z" fill="white"/>
<path d="M61.1301 76.2656H53.5039V83.8919H61.1301V76.2656Z" fill="white"/>
<path d="M68.7591 76.2656H61.1328V83.8919H68.7591V76.2656Z" fill="white"/>
<path d="M84.013 76.2656H76.3867V83.8919H84.013V76.2656Z" fill="white"/>
<path d="M91.638 76.2656H84.0117V83.8919H91.638V76.2656Z" fill="white"/>
<path d="M99.263 76.2656H91.6367V83.8919H99.263V76.2656Z" fill="white"/>
<path d="M106.892 76.2656H99.2656V83.8919H106.892V76.2656Z" fill="white"/>
<path d="M114.517 76.2656H106.891V83.8919H114.517V76.2656Z" fill="white"/>
<path d="M129.771 76.2656H122.145V83.8919H129.771V76.2656Z" fill="white"/>
<path d="M137.4 76.2656H129.773V83.8919H137.4V76.2656Z" fill="white"/>
<path d="M145.025 76.2656H137.398V83.8919H145.025V76.2656Z" fill="white"/>
<path d="M152.65 76.2656H145.023V83.8919H152.65V76.2656Z" fill="white"/>
<path d="M160.275 76.2656H152.648V83.8919H160.275V76.2656Z" fill="white"/>
<path d="M167.9 76.2656H160.273V83.8919H167.9V76.2656Z" fill="white"/>
<path d="M175.532 76.2656H167.906V83.8919H175.532V76.2656Z" fill="white"/>
<path d="M183.157 76.2656H175.531V83.8919H183.157V76.2656Z" fill="white"/>
<path d="M198.407 76.2656H190.781V83.8919H198.407V76.2656Z" fill="white"/>
<path d="M206.032 76.2656H198.406V83.8919H206.032V76.2656Z" fill="white"/>
<path d="M221.29 76.2656H213.664V83.8919H221.29V76.2656Z" fill="white"/>
<path d="M228.915 76.2656H221.289V83.8919H228.915V76.2656Z" fill="white"/>
<path d="M61.1301 83.8936H53.5039V91.5198H61.1301V83.8936Z" fill="white"/>
<path d="M68.7591 83.8936H61.1328V91.5198H68.7591V83.8936Z" fill="white"/>
<path d="M106.892 83.8936H99.2656V91.5198H106.892V83.8936Z" fill="white"/>
<path d="M114.517 83.8936H106.891V91.5198H114.517V83.8936Z" fill="white"/>
<path d="M122.142 83.8936H114.516V91.5198H122.142V83.8936Z" fill="white"/>
<path d="M129.771 83.8936H122.145V91.5198H129.771V83.8936Z" fill="white"/>
<path d="M160.279 83.8936H152.652V91.5198H160.279V83.8936Z" fill="white"/>
<path d="M167.9 83.8936H160.273V91.5198H167.9V83.8936Z" fill="white"/>
<path d="M175.532 83.8936H167.906V91.5198H175.532V83.8936Z" fill="white"/>
<path d="M183.157 83.8936H175.531V91.5198H183.157V83.8936Z" fill="white"/>
<path d="M190.782 83.8936H183.156V91.5198H190.782V83.8936Z" fill="white"/>
<path d="M198.407 83.8936H190.781V91.5198H198.407V83.8936Z" fill="white"/>
<path d="M228.915 83.8936H221.289V91.5198H228.915V83.8936Z" fill="white"/>
<path d="M84.013 91.5195H76.3867V99.1458H84.013V91.5195Z" fill="white"/>
<path d="M91.638 91.5195H84.0117V99.1458H91.638V91.5195Z" fill="white"/>
<path d="M114.517 91.5195H106.891V99.1458H114.517V91.5195Z" fill="white"/>
<path d="M129.771 91.5195H122.145V99.1458H129.771V91.5195Z" fill="white"/>
<path d="M152.65 91.5195H145.023V99.1458H152.65V91.5195Z" fill="white"/>
<path d="M160.279 91.5195H152.652V99.1458H160.279V91.5195Z" fill="white"/>
<path d="M175.532 91.5195H167.906V99.1458H175.532V91.5195Z" fill="white"/>
<path d="M183.157 91.5195H175.531V99.1458H183.157V91.5195Z" fill="white"/>
<path d="M198.407 91.5195H190.781V99.1458H198.407V91.5195Z" fill="white"/>
<path d="M213.665 91.5195H206.039V99.1458H213.665V91.5195Z" fill="white"/>
<path d="M221.29 91.5195H213.664V99.1458H221.29V91.5195Z" fill="white"/>
<path d="M228.915 91.5195H221.289V99.1458H228.915V91.5195Z" fill="white"/>
<path d="M45.8801 99.1455H38.2539V106.772H45.8801V99.1455Z" fill="white"/>
<path d="M53.5051 99.1455H45.8789V106.772H53.5051V99.1455Z" fill="white"/>
<path d="M61.1301 99.1455H53.5039V106.772H61.1301V99.1455Z" fill="white"/>
<path d="M76.3841 99.1455H68.7578V106.772H76.3841V99.1455Z" fill="white"/>
<path d="M106.892 99.1455H99.2656V106.772H106.892V99.1455Z" fill="white"/>
<path d="M114.517 99.1455H106.891V106.772H114.517V99.1455Z" fill="white"/>
<path d="M122.142 99.1455H114.516V106.772H122.142V99.1455Z" fill="white"/>
<path d="M137.4 99.1455H129.773V106.772H137.4V99.1455Z" fill="white"/>
<path d="M167.9 99.1455H160.273V106.772H167.9V99.1455Z" fill="white"/>
<path d="M206.032 99.1455H198.406V106.772H206.032V99.1455Z" fill="white"/>
<path d="M221.29 99.1455H213.664V106.772H221.29V99.1455Z" fill="white"/>
<path d="M45.8801 106.772H38.2539V114.399H45.8801V106.772Z" fill="white"/>
<path d="M61.1301 106.772H53.5039V114.399H61.1301V106.772Z" fill="white"/>
<path d="M68.7591 106.772H61.1328V114.399H68.7591V106.772Z" fill="white"/>
<path d="M84.013 106.772H76.3867V114.399H84.013V106.772Z" fill="white"/>
<path d="M91.638 106.772H84.0117V114.399H91.638V106.772Z" fill="white"/>
<path d="M160.275 106.772H152.648V114.399H160.275V106.772Z" fill="white"/>
<path d="M167.9 106.772H160.273V114.399H167.9V106.772Z" fill="white"/>
<path d="M183.157 114.113H175.531V121.74H183.157V114.113Z" fill="white"/>
<path d="M206.032 106.772H198.406V114.399H206.032V106.772Z" fill="white"/>
<path d="M221.29 106.772H213.664V114.399H221.29V106.772Z" fill="white"/>
<path d="M228.915 106.772H221.289V114.399H228.915V106.772Z" fill="white"/>
<path d="M45.8801 114.399H38.2539V122.026H45.8801V114.399Z" fill="white"/>
<path d="M106.892 114.399H99.2656V122.026H106.892V114.399Z" fill="white"/>
<path d="M137.4 114.399H129.773V122.026H137.4V114.399Z" fill="white"/>
<path d="M152.65 114.399H145.023V122.026H152.65V114.399Z" fill="white"/>
<path d="M160.279 114.399H152.652V122.026H160.279V114.399Z" fill="white"/>
<path d="M167.9 114.399H160.273V122.026H167.9V114.399Z" fill="white"/>
<path d="M175.532 114.399H167.906V122.026H175.532V114.399Z" fill="white"/>
<path d="M183.157 121.741H175.531V129.367H183.157V121.741Z" fill="white"/>
<path d="M190.782 114.399H183.156V122.026H190.782V114.399Z" fill="white"/>
<path d="M198.407 114.399H190.781V122.026H198.407V114.399Z" fill="white"/>
<path d="M206.032 114.399H198.406V122.026H206.032V114.399Z" fill="white"/>
<path d="M228.915 114.399H221.289V122.026H228.915V114.399Z" fill="white"/>
<path d="M45.8801 122.025H38.2539V129.652H45.8801V122.025Z" fill="white"/>
<path d="M68.7591 122.025H61.1328V129.652H68.7591V122.025Z" fill="white"/>
<path d="M76.3841 122.025H68.7578V129.652H76.3841V122.025Z" fill="white"/>
<path d="M84.013 122.025H76.3867V129.652H84.013V122.025Z" fill="white"/>
<path d="M91.638 122.025H84.0117V129.652H91.638V122.025Z" fill="white"/>
<path d="M114.517 122.025H106.891V129.652H114.517V122.025Z" fill="white"/>
<path d="M122.142 122.025H114.516V129.652H122.142V122.025Z" fill="white"/>
<path d="M137.4 122.025H129.773V129.652H137.4V122.025Z" fill="white"/>
<path d="M145.025 122.025H137.398V129.652H145.025V122.025Z" fill="white"/>
<path d="M152.65 122.025H145.023V129.652H152.65V122.025Z" fill="white"/>
<path d="M167.9 122.025H160.273V129.652H167.9V122.025Z" fill="white"/>
<path d="M175.532 122.025H167.906V129.652H175.532V122.025Z" fill="white"/>
<path d="M183.157 129.367H175.531V136.993H183.157V129.367Z" fill="white"/>
<path d="M183.157 69.168H175.531V76.7942H183.157V69.168Z" fill="white"/>
<path d="M190.782 122.025H183.156V129.652H190.782V122.025Z" fill="white"/>
<path d="M190.782 61.8262H183.156V69.4524H190.782V61.8262Z" fill="white"/>
<path d="M198.407 122.025H190.781V129.652H198.407V122.025Z" fill="white"/>
<path d="M198.407 61.8262H190.781V69.4524H198.407V61.8262Z" fill="white"/>
<path d="M213.665 122.025H206.039V129.652H213.665V122.025Z" fill="white"/>
<path d="M213.665 61.8262H206.039V69.4524H213.665V61.8262Z" fill="white"/>
<path d="M106.892 129.652H99.2656V137.279H106.892V129.652Z" fill="white"/>
<path d="M122.142 129.652H114.516V137.279H122.142V129.652Z" fill="white"/>
<path d="M152.65 129.652H145.023V137.279H152.65V129.652Z" fill="white"/>
<path d="M160.279 129.652H152.652V137.279H160.279V129.652Z" fill="white"/>
<path d="M167.9 129.652H160.273V137.279H167.9V129.652Z" fill="white"/>
<path d="M106.892 137.278H99.2656V144.905H106.892V137.278Z" fill="white"/>
<path d="M114.517 137.278H106.891V144.905H114.517V137.278Z" fill="white"/>
<path d="M122.142 137.278H114.516V144.905H122.142V137.278Z" fill="white"/>
<path d="M129.771 137.278H122.145V144.905H129.771V137.278Z" fill="white"/>
<path d="M137.4 137.278H129.773V144.905H137.4V137.278Z" fill="white"/>
<path d="M129.771 144.904H122.145V152.531H129.771V144.904Z" fill="white"/>
<path d="M167.9 144.904H160.273V152.531H167.9V144.904Z" fill="white"/>
<path d="M106.892 152.532H99.2656V160.158H106.892V152.532Z" fill="white"/>
<path d="M122.142 152.532H114.516V160.158H122.142V152.532Z" fill="white"/>
<path d="M129.771 152.532H122.145V160.158H129.771V152.532Z" fill="white"/>
<path d="M160.275 152.532H152.648V160.158H160.275V152.532Z" fill="white"/>
<path d="M106.892 160.158H99.2656V167.784H106.892V160.158Z" fill="white"/>
<path d="M122.142 160.158H114.516V167.784H122.142V160.158Z" fill="white"/>
<path d="M137.4 160.158H129.773V167.784H137.4V160.158Z" fill="white"/>
<path d="M145.025 160.158H137.398V167.784H145.025V160.158Z" fill="white"/>
<path d="M160.275 160.158H152.648V167.784H160.275V160.158Z" fill="white"/>
<path d="M106.892 167.784H99.2656V175.41H106.892V167.784Z" fill="white"/>
<path d="M114.517 167.784H106.891V175.41H114.517V167.784Z" fill="white"/>
<path d="M145.025 167.784H137.398V175.41H145.025V167.784Z" fill="white"/>
<path d="M152.65 167.784H145.023V175.41H152.65V167.784Z" fill="white"/>
<path d="M167.9 167.784H160.273V175.41H167.9V167.784Z" fill="white"/>
<path d="M106.892 175.411H99.2656V183.037H106.892V175.411Z" fill="white"/>
<path d="M137.4 175.411H129.773V183.037H137.4V175.411Z" fill="white"/>
<path d="M145.025 175.411H137.398V183.037H145.025V175.411Z" fill="white"/>
<path d="M160.279 175.411H152.652V183.037H160.279V175.411Z" fill="white"/>
<path d="M167.9 175.411H160.273V183.037H167.9V175.411Z" fill="white"/>
<path d="M106.892 183.037H99.2656V190.663H106.892V183.037Z" fill="white"/>
<path d="M137.4 183.037H129.773V190.663H137.4V183.037Z" fill="white"/>
<path d="M152.65 183.037H145.023V190.663H152.65V183.037Z" fill="white"/>
<path d="M160.275 183.037H152.648V190.663H160.275V183.037Z" fill="white"/>
<path d="M72.8995 136.551H56.0921C52.2085 136.542 48.4251 137.783 45.3006 140.089C42.1762 142.396 39.8766 145.646 38.7415 149.36C38.5102 150.13 38.3322 150.915 38.2085 151.709C38.0692 152.611 37.9995 153.522 38 154.435V171.643C38.0326 176.413 39.9557 180.975 43.3473 184.328C46.739 187.682 51.3224 189.553 56.0921 189.532H72.8995C77.6695 189.553 82.2531 187.682 85.6448 184.328C89.0366 180.974 90.9594 176.411 90.9917 171.641V154.435C90.9579 149.666 89.0343 145.105 85.6427 141.753C82.2511 138.4 77.6684 136.529 72.8995 136.551ZM83.0424 171.643C83.0126 174.306 81.9276 176.848 80.0255 178.712C78.1234 180.576 75.5595 181.609 72.8966 181.585H56.0936C53.4309 181.609 50.8673 180.576 48.9653 178.712C47.0632 176.849 45.978 174.307 45.9478 171.644V154.435C45.9462 152.778 46.3682 151.147 47.1738 149.699C47.9312 148.343 48.992 147.179 50.2733 146.3C51.9848 145.124 54.0138 144.496 56.0907 144.5H72.8995C75.5612 144.476 78.1238 145.508 80.0253 147.371C81.9268 149.234 83.0118 151.774 83.0424 154.436V171.643Z" fill="white"/>
<path d="M72.8995 1.46893H56.0921C52.2085 1.46002 48.4251 2.7005 45.3006 5.00713C42.1762 7.31375 39.8766 10.5642 38.7415 14.2782C38.5102 15.0482 38.3322 15.8331 38.2085 16.6274C38.0692 17.5291 37.9995 18.4402 38 19.3526V36.5608C38.0326 41.3305 39.9557 45.8925 43.3473 49.2462C46.739 52.5999 51.3224 54.4714 56.0921 54.4503H72.8995C77.6695 54.4714 82.2531 52.5997 85.6448 49.2457C89.0366 45.8916 90.9594 41.3293 90.9917 36.5593V19.3526C90.9579 14.5838 89.0343 10.0231 85.6427 6.67057C82.2511 3.31805 77.6684 1.44743 72.8995 1.46893ZM83.0424 36.5608C83.0126 39.2237 81.9276 41.766 80.0255 43.6298C78.1234 45.4937 75.5595 46.5268 72.8966 46.5025H56.0936C53.4309 46.5268 50.8673 45.4939 48.9653 43.6304C47.0632 41.7668 45.978 39.2249 45.9478 36.5623V19.3526C45.9462 17.6955 46.3682 16.0655 47.1738 14.6174C47.9312 13.2606 48.992 12.0973 50.2733 11.2183C51.9848 10.0416 54.0138 9.41378 56.0907 9.4182H72.8995C75.5612 9.39392 78.1238 10.4263 80.0253 12.289C81.9268 14.1516 83.0118 16.6924 83.0424 19.354V36.5608Z" fill="white"/>
<path d="M210.919 138.019H194.112C190.228 138.01 186.445 139.25 183.32 141.557C180.196 143.864 177.896 147.114 176.761 150.828C176.53 151.598 176.352 152.383 176.228 153.177C176.089 154.079 176.019 154.99 176.02 155.902V173.111C176.052 177.88 177.975 182.442 181.367 185.796C184.759 189.15 189.342 191.021 194.112 191H210.919C215.689 191.021 220.273 189.149 223.664 185.795C227.056 182.441 228.979 177.879 229.011 173.109V155.902C228.977 151.134 227.054 146.573 223.662 143.22C220.271 139.868 215.688 137.997 210.919 138.019ZM221.062 173.111C221.032 175.774 219.947 178.316 218.045 180.18C216.143 182.043 213.579 183.077 210.916 183.052H194.113C191.45 183.077 188.887 182.044 186.985 180.18C185.083 178.317 183.998 175.775 183.967 173.112V155.902C183.966 154.245 184.388 152.615 185.193 151.167C185.951 149.81 187.012 148.647 188.293 147.768C190.004 146.591 192.033 145.964 194.11 145.968H210.919C213.581 145.944 216.143 146.976 218.045 148.839C219.946 150.701 221.031 153.242 221.062 155.904V173.111Z" fill="white"/>
<path d="M210.919 0.000183323H194.112C190.228 -0.00873116 186.445 1.23175 183.32 3.53838C180.196 5.845 177.896 9.09543 176.761 12.8095C176.53 13.5794 176.352 14.3643 176.228 15.1587C176.089 16.0604 176.019 16.9714 176.02 17.8838V35.0921C176.052 39.8617 177.975 44.4237 181.367 47.7774C184.759 51.1311 189.342 53.0027 194.112 52.9816H210.919C215.689 53.0027 220.273 51.1309 223.664 47.7769C227.056 44.4229 228.979 39.8605 229.011 35.0906V17.8838C228.977 13.1151 227.054 8.55433 223.662 5.20182C220.271 1.8493 215.688 -0.0213179 210.919 0.000183323ZM221.062 35.0921C221.032 37.7549 219.947 40.2972 218.045 42.1611C216.143 44.0249 213.579 45.0581 210.916 45.0338H194.113C191.45 45.0581 188.887 44.0251 186.985 42.1616C185.083 40.2981 183.998 37.7562 183.967 35.0935V17.8838C183.966 16.2267 184.388 14.5967 185.193 13.1486C185.951 11.7919 187.012 10.6286 188.293 9.74956C190.004 8.57289 192.033 7.94503 194.11 7.94945H210.919C213.581 7.92517 216.143 8.95759 218.045 10.8202C219.946 12.6829 221.031 15.2237 221.062 17.8853V35.0921Z" fill="white"/>
<path d="M59.3573 174.398C57.7266 174.411 56.1569 173.778 54.9918 172.637C53.8268 171.496 53.1611 169.94 53.1406 168.309V157.771C53.1407 156.758 53.3989 155.761 53.8909 154.874C54.3538 154.042 55.0037 153.329 55.7894 152.791C56.8389 152.069 58.0835 151.684 59.3573 151.687H69.6514C71.2815 151.672 72.8509 152.304 74.0155 153.445C75.1801 154.585 75.8447 156.141 75.8637 157.771V168.309C75.8432 169.939 75.1782 171.495 74.0141 172.636C72.8499 173.777 71.2814 174.41 69.6514 174.398H59.3573Z" fill="white"/>
<path d="M59.3573 39.3161C57.7266 39.3294 56.1569 38.6963 54.9918 37.5551C53.8268 36.414 53.1611 34.8578 53.1406 33.2271V22.6893C53.1407 21.6756 53.3989 20.6787 53.8909 19.7924C54.3538 18.9602 55.0037 18.2469 55.7894 17.7089C56.8389 16.9869 58.0835 16.6018 59.3573 16.6047H69.6514C71.2815 16.5899 72.8509 17.2221 74.0155 18.3627C75.1801 19.5033 75.8447 21.0593 75.8637 22.6893V33.2271C75.8432 34.8571 75.1782 36.4126 74.0141 37.5536C72.8499 38.6946 71.2814 39.3283 69.6514 39.3161H59.3573Z" fill="white"/>
<path d="M197.369 175.867C195.738 175.88 194.169 175.247 193.004 174.106C191.838 172.965 191.173 171.409 191.152 169.778V159.24C191.152 158.226 191.411 157.229 191.903 156.343C192.366 155.511 193.015 154.798 193.801 154.26C194.851 153.538 196.095 153.153 197.369 153.156H207.663C209.293 153.141 210.863 153.773 212.027 154.913C213.192 156.054 213.856 157.61 213.875 159.24V169.778C213.855 171.408 213.19 172.963 212.026 174.104C210.862 175.245 209.293 175.879 207.663 175.867H197.369Z" fill="white"/>
<path d="M197.369 37.8473C195.738 37.8607 194.169 37.2275 193.004 36.0864C191.838 34.9452 191.173 33.3891 191.152 31.7584V21.2205C191.152 20.2069 191.411 19.2099 191.903 18.3236C192.366 17.4914 193.015 16.7782 193.801 16.2401C194.851 15.5182 196.095 15.133 197.369 15.136H207.663C209.293 15.1211 210.863 15.7533 212.027 16.894C213.192 18.0346 213.856 19.5905 213.875 21.2205V31.7584C213.855 33.3883 213.19 34.9438 212.026 36.0848C210.862 37.2258 209.293 37.8595 207.663 37.8473H197.369Z" fill="white"/>
<path d="M140.78 70.4775H127.565C118.645 70.4775 111.414 77.7086 111.414 86.6286V99.8431C111.414 108.763 118.645 115.994 127.565 115.994H140.78C149.7 115.994 156.931 108.763 156.931 99.8431V86.6286C156.931 77.7086 149.7 70.4775 140.78 70.4775Z" fill="#0CAF60"/>
<path d="M140.782 66.8066H127.568C116.621 66.8066 107.746 75.6812 107.746 86.6284V99.8429C107.746 110.79 116.621 119.665 127.568 119.665H140.782C151.73 119.665 160.604 110.79 160.604 99.8429V86.6284C160.604 75.6812 151.73 66.8066 140.782 66.8066Z" stroke="#0B0E13" stroke-width="7.3414"/>
<path d="M145.919 92.4996C145.987 91.9847 146.022 91.4657 146.021 90.9462C146.021 90.8346 146.021 90.7244 146.021 90.6158C146.021 90.4308 146.01 90.2766 145.998 90.1312C145.97 89.731 145.921 89.3325 145.851 88.9375C145.839 88.8729 145.829 88.8098 145.817 88.7482C145.798 88.6395 145.776 88.5294 145.751 88.4237C145.736 88.359 145.723 88.2944 145.707 88.2342C145.687 88.1446 145.664 88.0536 145.64 87.967C145.042 85.7033 143.775 83.6725 142.006 82.1394L141.876 82.0264L141.797 82.1732C141.689 82.3807 141.598 82.5963 141.522 82.8178C141.361 83.2941 141.28 83.7935 141.28 84.2963C141.28 84.5525 141.302 84.8084 141.343 85.0612V85.1068L141.354 85.1171C141.394 85.3448 141.452 85.5692 141.527 85.7881C140.574 85.6342 139.597 85.7377 138.698 86.088C137.799 86.4383 137.009 87.0227 136.411 87.7806L136.265 87.9743L136.511 87.9993C136.533 87.9993 138.737 88.2225 140.711 88.5308C141.536 88.6533 142.351 88.8438 143.145 89.1005H143.154C143.267 89.1306 143.366 89.2009 143.432 89.2984C143.497 89.3959 143.525 89.5138 143.51 89.6303C143.495 89.7469 143.439 89.8541 143.351 89.9319C143.263 90.0097 143.149 90.0529 143.032 90.0534H122.865C122.855 90.0521 122.844 90.0521 122.834 90.0534H122.82C122.807 90.0585 122.795 90.0654 122.784 90.0739H122.775C122.767 90.0817 122.76 90.0906 122.754 90.1004C122.75 90.1054 122.746 90.1109 122.743 90.1166C122.74 90.1257 122.737 90.135 122.736 90.1445C122.735 90.1513 122.735 90.1581 122.736 90.165C122.72 90.4131 122.711 90.6672 122.711 90.9197C122.717 91.563 122.77 92.2049 122.871 92.8402L122.89 92.9532H129.49C130.594 92.951 131.675 93.2721 132.598 93.8768C133.988 95.1751 134.981 96.8418 135.46 98.6825C135.819 99.9745 136.509 101.15 137.463 102.093C137.905 102.511 138.398 102.871 138.931 103.164C140.507 104.034 142.351 104.288 144.104 103.877H144.114L144.137 103.867C144.146 103.863 144.154 103.857 144.161 103.851H144.171C144.171 103.847 144.171 103.844 144.171 103.841C144.177 103.833 144.182 103.825 144.186 103.817C144.19 103.81 144.193 103.802 144.195 103.794C144.195 103.785 144.195 103.777 144.195 103.769C144.196 103.76 144.196 103.751 144.195 103.742C144.195 103.742 144.195 103.733 144.195 103.729C144.195 103.726 144.195 103.722 144.195 103.719C144.192 103.71 144.188 103.702 144.183 103.694C144.179 103.686 144.174 103.68 144.168 103.673L144.161 103.663C143.074 102.64 142.24 101.378 141.727 99.976C144.028 98.1112 145.528 95.4359 145.919 92.4996Z" fill="#EDF4FF"/>
<path d="M136.573 102.391C136.574 102.382 136.574 102.373 136.573 102.364C136.574 102.359 136.574 102.354 136.573 102.349C136.574 102.346 136.574 102.343 136.573 102.34C136.572 102.331 136.569 102.322 136.565 102.314C136.561 102.305 136.557 102.298 136.551 102.29V102.281C136.268 101.931 136.015 101.557 135.795 101.164C135.789 101.154 135.781 101.144 135.772 101.136L135.764 101.127C135.753 101.118 135.74 101.111 135.726 101.105H135.719C135.707 101.104 135.695 101.104 135.684 101.105H135.667C135.588 101.105 135.227 101.115 134.994 101.118H134.776H134.701C134.36 101.124 134.012 101.114 133.659 101.086C132.223 100.969 130.829 100.546 129.571 99.844C127.585 98.7351 126.024 96.9962 125.135 94.9018C124.98 94.5308 124.846 94.1508 124.736 93.7638C124.733 93.7551 124.728 93.7467 124.723 93.7388C124.719 93.7317 124.715 93.7249 124.71 93.7183C124.703 93.7118 124.697 93.7059 124.689 93.7007L124.669 93.6875L124.644 93.6787H124.617H123.209H123.193H123.168H123.158L123.133 93.6905L123.112 93.7051C123.106 93.7108 123.1 93.7172 123.095 93.7242C123.089 93.7305 123.084 93.7374 123.08 93.7448C123.076 93.7523 123.073 93.7601 123.071 93.7682C123.07 93.777 123.07 93.7859 123.071 93.7947C123.071 93.7981 123.071 93.8016 123.071 93.805C123.071 93.8104 123.071 93.8157 123.071 93.8211C123.071 93.8211 123.071 93.8314 123.071 93.8372C123.294 94.7173 123.62 95.568 124.043 96.3715C125.173 98.5107 126.935 100.249 129.09 101.35C129.131 102.061 129.43 102.731 129.93 103.237C130.43 103.742 131.098 104.048 131.807 104.098H131.825C131.842 104.098 131.859 104.095 131.875 104.089L131.891 104.079C131.9 104.074 131.908 104.069 131.916 104.062C131.921 104.057 131.925 104.052 131.929 104.046C131.935 104.039 131.941 104.032 131.945 104.024C131.946 104.017 131.946 104.01 131.945 104.002C131.949 103.995 131.951 103.987 131.953 103.979C132.022 103.438 132.215 102.92 132.517 102.466C132.977 102.541 133.441 102.587 133.907 102.604C134.054 102.604 134.201 102.615 134.361 102.615H134.453C134.983 102.615 135.986 102.575 136.454 102.513H136.465L136.494 102.503L136.512 102.493H136.522C136.522 102.493 136.522 102.485 136.532 102.481C136.539 102.474 136.545 102.467 136.55 102.459C136.559 102.445 136.565 102.429 136.569 102.412L136.573 102.391Z" fill="#EDF4FF"/>
<path d="M127.309 93.742C127.304 93.732 127.298 93.7226 127.291 93.7141C127.288 93.7079 127.284 93.702 127.279 93.6964C127.273 93.6915 127.267 93.6872 127.26 93.6833C127.253 93.6768 127.244 93.6714 127.235 93.6671H127.219C127.207 93.6656 127.196 93.6656 127.184 93.6671H125.641L125.693 93.8418C125.73 93.9637 125.771 94.0871 125.814 94.206C126.58 96.3797 128.123 98.1933 130.145 99.2979C131.713 100.058 133.434 100.45 135.177 100.445H135.224C135.26 100.445 135.294 100.43 135.32 100.405C135.345 100.38 135.359 100.345 135.359 100.31V100.254L135.339 100.233C135.199 99.8863 135.08 99.5313 134.982 99.1702C134.982 99.1702 134.982 99.1629 134.982 99.1585C134.982 99.1517 134.982 99.1447 134.982 99.1379C134.978 99.129 134.973 99.1206 134.967 99.113L134.954 99.0968C134.947 99.0902 134.939 99.0843 134.93 99.0792L134.913 99.0689C134.903 99.0646 134.893 99.0617 134.882 99.0601H134.867C134.776 99.0601 134.687 99.0439 134.597 99.0337C133.581 98.9353 132.582 98.7064 131.625 98.3524C129.645 97.4421 128.099 95.7931 127.319 93.7581L127.309 93.742Z" fill="#EDF4FF"/>
<path d="M128.306 93.8218C128.305 93.8306 128.305 93.8394 128.306 93.8482C128.88 94.9217 129.698 95.8448 130.695 96.5428C131.692 97.2408 132.839 97.694 134.044 97.8655H134.075C134.114 97.8654 134.152 97.8566 134.187 97.8398C134.222 97.8231 134.252 97.7988 134.276 97.7686C134.304 97.7341 134.323 97.6931 134.331 97.6494C134.338 97.6057 134.335 97.5609 134.32 97.5189L133.962 96.4648C133.941 96.4029 133.904 96.3474 133.856 96.3037C133.807 96.26 133.748 96.2295 133.684 96.2151C132.16 95.849 130.81 94.964 129.867 93.7117L129.858 93.7029C129.853 93.6953 129.846 93.6885 129.839 93.6823L129.817 93.6676L129.795 93.6589H129.767H128.425C128.416 93.658 128.407 93.658 128.397 93.6589H128.372C128.367 93.6624 128.362 93.6664 128.358 93.6706C128.349 93.6757 128.341 93.6815 128.334 93.6882C128.329 93.6946 128.324 93.7015 128.319 93.7088C128.314 93.7161 128.31 93.724 128.306 93.7323C128.305 93.7415 128.305 93.7509 128.306 93.7601C128.306 93.7665 128.306 93.7729 128.306 93.7792C128.304 93.7933 128.304 93.8077 128.306 93.8218Z" fill="#EDF4FF"/>
<defs>
<clipPath id="clip0_704_15059">
<rect width="14" height="14" fill="white" transform="translate(14.4453 321.896)"/>
</clipPath>
</defs>
</svg>
