<svg width="24" height="24" viewBox="0 0 24 24" fill="none" xmlns="http://www.w3.org/2000/svg">
<g clip-path="url(#clip0_747_19389)">
<path d="M5 8.99998C5.26522 8.99998 5.51957 9.10534 5.70711 9.29288C5.89464 9.48041 6 9.73477 6 9.99998C7.57114 9.99767 9.09698 10.5263 10.33 11.5H12.5C13.833 11.5 15.03 12.08 15.854 13H19C19.9453 12.9997 20.8712 13.2674 21.6705 13.772C22.4698 14.2766 23.1097 14.9975 23.516 15.851C21.151 18.972 17.322 21 13 21C10.21 21 7.85 20.397 5.94 19.342C5.87004 19.535 5.74224 19.7018 5.57402 19.8196C5.40579 19.9373 5.20534 20.0003 5 20H2C1.73478 20 1.48043 19.8946 1.29289 19.7071C1.10536 19.5196 1 19.2652 1 19V9.99998C1 9.73477 1.10536 9.48041 1.29289 9.29288C1.48043 9.10534 1.73478 8.99998 2 8.99998H5ZM6.001 12L6 17.022L6.045 17.054C7.84 18.314 10.178 19 13 19C16.004 19 18.799 17.844 20.835 15.87L20.968 15.737L20.848 15.637C20.3758 15.2672 19.8034 15.0477 19.205 15.007L19 15H16.889C16.961 15.322 17 15.656 17 16V17H8V15L14.79 14.999L14.756 14.921C14.5644 14.5205 14.2696 14.1783 13.9019 13.9294C13.5343 13.6806 13.107 13.5341 12.664 13.505L12.5 13.5H9.57C9.10531 13.0247 8.55027 12.6472 7.93752 12.3896C7.32477 12.132 6.66669 11.9995 6.002 12H6.001ZM4 11H3V18H4V11ZM18 4.99998C18.7956 4.99998 19.5587 5.31606 20.1213 5.87866C20.6839 6.44127 21 7.20434 21 7.99998C21 8.79563 20.6839 9.5587 20.1213 10.1213C19.5587 10.6839 18.7956 11 18 11C17.2044 11 16.4413 10.6839 15.8787 10.1213C15.3161 9.5587 15 8.79563 15 7.99998C15 7.20434 15.3161 6.44127 15.8787 5.87866C16.4413 5.31606 17.2044 4.99998 18 4.99998ZM18 6.99998C17.7348 6.99998 17.4804 7.10534 17.2929 7.29288C17.1054 7.48041 17 7.73477 17 7.99998C17 8.2652 17.1054 8.51956 17.2929 8.70709C17.4804 8.89463 17.7348 8.99998 18 8.99998C18.2652 8.99998 18.5196 8.89463 18.7071 8.70709C18.8946 8.51956 19 8.2652 19 7.99998C19 7.73477 18.8946 7.48041 18.7071 7.29288C18.5196 7.10534 18.2652 6.99998 18 6.99998ZM11 1.99998C11.7956 1.99998 12.5587 2.31606 13.1213 2.87866C13.6839 3.44127 14 4.20434 14 4.99998C14 5.79563 13.6839 6.5587 13.1213 7.1213C12.5587 7.68391 11.7956 7.99998 11 7.99998C10.2044 7.99998 9.44129 7.68391 8.87868 7.1213C8.31607 6.5587 8 5.79563 8 4.99998C8 4.20434 8.31607 3.44127 8.87868 2.87866C9.44129 2.31606 10.2044 1.99998 11 1.99998ZM11 3.99998C10.7348 3.99998 10.4804 4.10534 10.2929 4.29288C10.1054 4.48041 10 4.73477 10 4.99998C10 5.2652 10.1054 5.51955 10.2929 5.70709C10.4804 5.89463 10.7348 5.99998 11 5.99998C11.2652 5.99998 11.5196 5.89463 11.7071 5.70709C11.8946 5.51955 12 5.2652 12 4.99998C12 4.73477 11.8946 4.48041 11.7071 4.29288C11.5196 4.10534 11.2652 3.99998 11 3.99998Z" fill="white"/>
</g>
<defs>
<clipPath id="clip0_747_19389">
<rect width="24" height="24" fill="white"/>
</clipPath>
</defs>
</svg>
