<svg width="14" height="20" viewBox="0 0 14 20" fill="none" xmlns="http://www.w3.org/2000/svg">
<path d="M2 1.99998V18H12V1.99998H2ZM1 -1.52588e-05H13C13.2652 -1.52588e-05 13.5196 0.105342 13.7071 0.292878C13.8946 0.480414 14 0.734768 14 0.999985V19C14 19.2652 13.8946 19.5196 13.7071 19.7071C13.5196 19.8946 13.2652 20 13 20H1C0.734784 20 0.48043 19.8946 0.292893 19.7071C0.105357 19.5196 0 19.2652 0 19V0.999985C0 0.734768 0.105357 0.480414 0.292893 0.292878C0.48043 0.105342 0.734784 -1.52588e-05 1 -1.52588e-05ZM7 15C7.26522 15 7.51957 15.1053 7.70711 15.2929C7.89464 15.4804 8 15.7348 8 16C8 16.2652 7.89464 16.5196 7.70711 16.7071C7.51957 16.8946 7.26522 17 7 17C6.73478 17 6.48043 16.8946 6.29289 16.7071C6.10536 16.5196 6 16.2652 6 16C6 15.7348 6.10536 15.4804 6.29289 15.2929C6.48043 15.1053 6.73478 15 7 15Z" fill="white"/>
</svg>
