<svg width="48" height="48" viewBox="0 0 48 48" fill="none" xmlns="http://www.w3.org/2000/svg">
<rect width="48" height="48" rx="16" fill="#FF637E"/>
<g clip-path="url(#clip0_747_19440)">
<path d="M31 34H17C16.2044 34 15.4413 33.6839 14.8787 33.1213C14.3161 32.5587 14 31.7956 14 31V15C14 14.7348 14.1054 14.4804 14.2929 14.2929C14.4804 14.1054 14.7348 14 15 14H29C29.2652 14 29.5196 14.1054 29.7071 14.2929C29.8946 14.4804 30 14.7348 30 15V27H34V31C34 31.7956 33.6839 32.5587 33.1213 33.1213C32.5587 33.6839 31.7956 34 31 34ZM30 29V31C30 31.2652 30.1054 31.5196 30.2929 31.7071C30.4804 31.8946 30.7348 32 31 32C31.2652 32 31.5196 31.8946 31.7071 31.7071C31.8946 31.5196 32 31.2652 32 31V29H30ZM28 32V16H16V31C16 31.2652 16.1054 31.5196 16.2929 31.7071C16.4804 31.8946 16.7348 32 17 32H28ZM18 19H26V21H18V19ZM18 23H26V25H18V23ZM18 27H23V29H18V27Z" fill="white"/>
</g>
<defs>
<clipPath id="clip0_747_19440">
<rect width="24" height="24" fill="white" transform="translate(12 12)"/>
</clipPath>
</defs>
</svg>
