<svg width="48" height="48" viewBox="0 0 48 48" fill="none" xmlns="http://www.w3.org/2000/svg">
<rect y="0.000427246" width="48" height="48" rx="16" fill="#FF3E46"/>
<g clip-path="url(#clip0_747_19436)">
<path d="M18 30.0004H30V18.0004H18V30.0004ZM26 32.0004H22V34.0004H20V32.0004H17C16.7348 32.0004 16.4804 31.8951 16.2929 31.7075C16.1054 31.52 16 31.2656 16 31.0004V28.0004H14V26.0004H16V22.0004H14V20.0004H16V17.0004C16 16.7352 16.1054 16.4809 16.2929 16.2933C16.4804 16.1058 16.7348 16.0004 17 16.0004H20V14.0004H22V16.0004H26V14.0004H28V16.0004H31C31.2652 16.0004 31.5196 16.1058 31.7071 16.2933C31.8946 16.4809 32 16.7352 32 17.0004V20.0004H34V22.0004H32V26.0004H34V28.0004H32V31.0004C32 31.2656 31.8946 31.52 31.7071 31.7075C31.5196 31.8951 31.2652 32.0004 31 32.0004H28V34.0004H26V32.0004ZM20 20.0004H28V28.0004H20V20.0004Z" fill="white"/>
</g>
<defs>
<clipPath id="clip0_747_19436">
<rect width="24" height="24" fill="white" transform="translate(12 12.0004)"/>
</clipPath>
</defs>
</svg>
