<svg width="48" height="48" viewBox="0 0 48 48" fill="none" xmlns="http://www.w3.org/2000/svg">
<rect y="-1.52588e-05" width="48" height="48" rx="16" fill="#1984FF"/>
<g clip-path="url(#clip0_747_19442)">
<path d="M18.5 23.5C17.9091 23.5 17.3239 23.3836 16.7779 23.1575C16.232 22.9313 15.7359 22.5998 15.318 22.182C14.9002 21.7641 14.5687 21.268 14.3425 20.7221C14.1164 20.1761 14 19.5909 14 19C14 18.4091 14.1164 17.8239 14.3425 17.2779C14.5687 16.732 14.9002 16.2359 15.318 15.818C15.7359 15.4002 16.232 15.0687 16.7779 14.8425C17.3239 14.6164 17.9091 14.5 18.5 14.5C19.6935 14.5 20.8381 14.9741 21.682 15.818C22.5259 16.6619 23 17.8065 23 19C23 20.1935 22.5259 21.3381 21.682 22.182C20.8381 23.0259 19.6935 23.5 18.5 23.5ZM19 33.5C17.8065 33.5 16.6619 33.0259 15.818 32.182C14.9741 31.3381 14.5 30.1935 14.5 29C14.5 27.8065 14.9741 26.6619 15.818 25.818C16.6619 24.9741 17.8065 24.5 19 24.5C20.1935 24.5 21.3381 24.9741 22.182 25.818C23.0259 26.6619 23.5 27.8065 23.5 29C23.5 30.1935 23.0259 31.3381 22.182 32.182C21.3381 33.0259 20.1935 33.5 19 33.5ZM29 23.5C28.4091 23.5 27.8239 23.3836 27.2779 23.1575C26.732 22.9313 26.2359 22.5998 25.818 22.182C25.4002 21.7641 25.0687 21.268 24.8425 20.7221C24.6164 20.1761 24.5 19.5909 24.5 19C24.5 18.4091 24.6164 17.8239 24.8425 17.2779C25.0687 16.732 25.4002 16.2359 25.818 15.818C26.2359 15.4002 26.732 15.0687 27.2779 14.8425C27.8239 14.6164 28.4091 14.5 29 14.5C30.1935 14.5 31.3381 14.9741 32.182 15.818C33.0259 16.6619 33.5 17.8065 33.5 19C33.5 20.1935 33.0259 21.3381 32.182 22.182C31.3381 23.0259 30.1935 23.5 29 23.5ZM29 33.5C27.8065 33.5 26.6619 33.0259 25.818 32.182C24.9741 31.3381 24.5 30.1935 24.5 29C24.5 27.8065 24.9741 26.6619 25.818 25.818C26.6619 24.9741 27.8065 24.5 29 24.5C30.1935 24.5 31.3381 24.9741 32.182 25.818C33.0259 26.6619 33.5 27.8065 33.5 29C33.5 30.1935 33.0259 31.3381 32.182 32.182C31.3381 33.0259 30.1935 33.5 29 33.5ZM18.5 21.5C19.163 21.5 19.7989 21.2366 20.2678 20.7678C20.7366 20.2989 21 19.663 21 19C21 18.337 20.7366 17.7011 20.2678 17.2322C19.7989 16.7634 19.163 16.5 18.5 16.5C17.837 16.5 17.2011 16.7634 16.7322 17.2322C16.2634 17.7011 16 18.337 16 19C16 19.663 16.2634 20.2989 16.7322 20.7678C17.2011 21.2366 17.837 21.5 18.5 21.5ZM19 31.5C19.663 31.5 20.2989 31.2366 20.7678 30.7678C21.2366 30.2989 21.5 29.663 21.5 29C21.5 28.337 21.2366 27.7011 20.7678 27.2322C20.2989 26.7634 19.663 26.5 19 26.5C18.337 26.5 17.7011 26.7634 17.2322 27.2322C16.7634 27.7011 16.5 28.337 16.5 29C16.5 29.663 16.7634 30.2989 17.2322 30.7678C17.7011 31.2366 18.337 31.5 19 31.5ZM29 21.5C29.663 21.5 30.2989 21.2366 30.7678 20.7678C31.2366 20.2989 31.5 19.663 31.5 19C31.5 18.337 31.2366 17.7011 30.7678 17.2322C30.2989 16.7634 29.663 16.5 29 16.5C28.337 16.5 27.7011 16.7634 27.2322 17.2322C26.7634 17.7011 26.5 18.337 26.5 19C26.5 19.663 26.7634 20.2989 27.2322 20.7678C27.7011 21.2366 28.337 21.5 29 21.5ZM29 31.5C29.663 31.5 30.2989 31.2366 30.7678 30.7678C31.2366 30.2989 31.5 29.663 31.5 29C31.5 28.337 31.2366 27.7011 30.7678 27.2322C30.2989 26.7634 29.663 26.5 29 26.5C28.337 26.5 27.7011 26.7634 27.2322 27.2322C26.7634 27.7011 26.5 28.337 26.5 29C26.5 29.663 26.7634 30.2989 27.2322 30.7678C27.7011 31.2366 28.337 31.5 29 31.5Z" fill="white"/>
</g>
<defs>
<clipPath id="clip0_747_19442">
<rect width="24" height="24" fill="white" transform="translate(12 12)"/>
</clipPath>
</defs>
</svg>
